<svg id="Capa_1" data-name="Capa 1" xmlns="http://www.w3.org/2000/svg" viewBox="0 0 934.09 533.08"><defs><style>.cls-1,.cls-2{fill:none;stroke-width:2px;}.cls-1{stroke:#99a3a9;}.cls-2{stroke:#f1cbab;}.cls-3{fill:#324652;}.cls-4{fill:#e29656;}</style></defs><path class="cls-1" d="M392.29,433.34c20.58,20.62,47,35.17,73.52,46.17,12.1,5,40.44,13.42,43.09-6.54,1.3-9.89-7.61-17.17-15.79-20.69q-14.78-6.36-47.48-23.13C418,415,397.42,393.68,397.13,361.34c-.35-36.86,26.12-68.35,59.64-79.94q12.74-4.39,30.11-5a1,1,0,0,0,1.06-1.13l-.09-36.51c0-.63-.3-.92-.9-.89Q444,239.71,411.3,264.59c-52.23,39.69-69.1,118.57-19,168.75" transform="translate(-70.17 -236.87)"/><path class="cls-1" d="M507.27,277.74c31.75,5.43,52.64,20.57,75.51,42.09a.77.77,0,0,0,1.21,0l24.29-23.5a.89.89,0,0,0,.07-1.38c-26-30.64-60.56-51.84-100.35-57-.71-.1-1.06.21-1.06.93v38.48a.4.4,0,0,0,.33.4" transform="translate(-70.17 -236.87)"/><path class="cls-1" d="M492,341.2c2.18,1.81,4.87,4.14,7.47,5.31,30.16,13.6,67.8,27.81,83.15,60.52a77.74,77.74,0,0,1,1.71,61.75c-12.37,30.38-45.07,46.71-76,48a1.54,1.54,0,0,0-1.45,1.56v37c0,.54.26.79.8.74,55.12-4.21,106.1-39.94,115.47-98.7,7.76-48.63-13.91-90.5-53.75-116.13-14.83-9.54-55.89-34.77-72.9-29.46-12.38,3.87-14.67,21-4.52,29.38" transform="translate(-70.17 -236.87)"/><path class="cls-1" d="M433.4,351.28c-3.41,26.1,15.47,44.07,36,55.49Q488,417.15,518.09,433q13.75,7.26,20.88,23.41c.28.63.64.69,1.09.18a42,42,0,0,0,10.26-22.4c2.84-20.46-16.36-33.88-31.19-43.13q-19.28-12-38.47-24.15Q459,353.3,458.87,325.47c0-.56-.27-.77-.8-.66q-21.85,4.95-24.67,26.47" transform="translate(-70.17 -236.87)"/><path class="cls-2" d="M388.76,510.93c28.71,24.38,61.91,42.44,98.74,45.58a.67.67,0,0,0,.82-.76V518.34a1.13,1.13,0,0,0-1-1.13c-25.48-2.85-50.89-16.43-70.68-32.55a1.77,1.77,0,0,0-2.37.1l-25.55,24.67a.89.89,0,0,0,.05,1.5" transform="translate(-70.17 -236.87)"/><path class="cls-1" d="M166.84,647.12c-33.4-9.45-10.24-35.53,10.77-24,5.73,3.17,7.31,9.46,8.16,15.62a1,1,0,0,0,1.09.88l19.06-1.54a.64.64,0,0,0,.64-.7c.15-19.22-10.38-33.58-28.83-37.26-14.46-2.88-33.45.28-41.85,13.69-11.21,17.86-5.7,47.14,15.61,54.63q12.66,4.46,25.38,8.83c16.9,5.8,15.67,25.21-.26,30.21-16.69,5.24-28.12-6-29.64-22.33a1.14,1.14,0,0,0-1.22-1l-18.5,1.57a.69.69,0,0,0-.71.83c2.29,33.14,24.5,49.21,56,41.7,24.15-5.77,31.77-31.58,24-54-6.36-18.35-23.42-22.56-39.75-27.17" transform="translate(-70.17 -236.87)"/><path class="cls-1" d="M289.17,700a.74.74,0,0,1,.71.53l8.4,27.23a.75.75,0,0,0,.71.53h21a.78.78,0,0,0,.7-1L280.09,601.46a.74.74,0,0,0-.71-.53h-20.7a.76.76,0,0,0-.71.53L218.35,727.25a.76.76,0,0,0,.49,1,.59.59,0,0,0,.23,0h20.56a.75.75,0,0,0,.71-.55l8-27.19A.74.74,0,0,1,249,700h40.15" transform="translate(-70.17 -236.87)"/><path class="cls-1" d="M383.84,600.93a.52.52,0,0,0-.5.39l-24.51,91.84a.52.52,0,0,1-.66.34.53.53,0,0,1-.33-.34l-25.36-91.84a.52.52,0,0,0-.5-.39H310.6a.52.52,0,0,0-.52.53.32.32,0,0,0,0,.14l36.2,126.25a.53.53,0,0,0,.49.39h21.67a.52.52,0,0,0,.48-.39L405.27,601.6a.53.53,0,0,0-.36-.65l-.14,0H383.84" transform="translate(-70.17 -236.87)"/><path class="cls-1" d="M439,707a.87.87,0,0,1-.87-.88v-33.6a.87.87,0,0,1,.87-.88h49.8a.88.88,0,0,0,.87-.89V653.09a.87.87,0,0,0-.87-.88H439a.88.88,0,0,1-.87-.89V623a.88.88,0,0,1,.87-.88h53.7a.87.87,0,0,0,.86-.88V601.82a.87.87,0,0,0-.86-.89H418.16a.88.88,0,0,0-.87.89V727.36a.88.88,0,0,0,.87.88h76.65a.88.88,0,0,0,.87-.88V707.91a.88.88,0,0,0-.87-.89H439" transform="translate(-70.17 -236.87)"/><path class="cls-2" d="M590.44,635.71q1.81-9,1.81.18v91a1.16,1.16,0,0,0,1.3,1.33h17.1a1,1,0,0,0,1.09-1.11V601.82a.78.78,0,0,0-.86-.89H581.36a1.22,1.22,0,0,0-1.18,1l-17.62,84.72a.6.6,0,0,1-.7.5.59.59,0,0,1-.49-.5l-17.85-84.54a1.29,1.29,0,0,0-1.38-1.15H513.66a1,1,0,0,0-1.09,1.1l0,125.1a1,1,0,0,0,1.09,1.11h17.12a.87.87,0,0,0,.86-.88V635.5q0-9.15,1.79-.2l18.34,91.79a1.28,1.28,0,0,0,1.39,1.15H570.7a1.26,1.26,0,0,0,1.36-1.13l18.38-91.4" transform="translate(-70.17 -236.87)"/><path class="cls-2" d="M653.77,707a.89.89,0,0,1-.89-.9h0V672.56a.89.89,0,0,1,.89-.9h49.77a.89.89,0,0,0,.88-.9h0V653.11a.89.89,0,0,0-.88-.9H653.77a.9.9,0,0,1-.89-.9h0V623.05a.89.89,0,0,1,.89-.9h53.66a.89.89,0,0,0,.89-.9h0l0-19.42a.9.9,0,0,0-.88-.9H633a.89.89,0,0,0-.88.9h0V727.34a.89.89,0,0,0,.88.9H709.6a.89.89,0,0,0,.88-.9h0V707.92a.89.89,0,0,0-.88-.9H653.77" transform="translate(-70.17 -236.87)"/><path class="cls-2" d="M728.52,600.93a.72.72,0,0,0-.71.73V727.51a.71.71,0,0,0,.71.73h70.85a.72.72,0,0,0,.71-.73l.15-19.76a.72.72,0,0,0-.71-.73H749.3a.71.71,0,0,1-.71-.72V601.66a.72.72,0,0,0-.71-.73H728.52" transform="translate(-70.17 -236.87)"/><path class="cls-2" d="M835.64,601.57a.61.61,0,0,0-.6-.62H815.88a.61.61,0,0,0-.61.62h0v126a.61.61,0,0,0,.61.62H834.3a1.38,1.38,0,0,0,1.34-1.42V601.57" transform="translate(-70.17 -236.87)"/><path class="cls-2" d="M875.05,647.31a.52.52,0,0,1,1-.23L916.3,728a.51.51,0,0,0,.45.28h19.32a1.38,1.38,0,0,0,1.34-1.42V602.35a1.38,1.38,0,0,0-1.34-1.42h-16.8a1.38,1.38,0,0,0-1.34,1.42v81.21a.52.52,0,0,1-1,.23L876.2,601.23a.53.53,0,0,0-.45-.3H857.34a1.38,1.38,0,0,0-1.34,1.42l0,124.47a1.38,1.38,0,0,0,1.34,1.42h16.39a1.38,1.38,0,0,0,1.34-1.42V647.31" transform="translate(-70.17 -236.87)"/><path class="cls-1" d="M72.56,767.6,1002.05,769a1.22,1.22,0,0,0,1.21-1.24v-.05c0-.18,0-.35,0-.51a.94.94,0,0,0-1-1.06c-138.51-1.17-226.53-1-339.89-2q-74.61-.63-308.68.56a2,2,0,0,1-1.25-.44,1.48,1.48,0,0,0-.92-.28q-138.65.06-277.3.09a4.38,4.38,0,0,0-2,.37,1.66,1.66,0,0,0-.74,2.35,1.29,1.29,0,0,0,1.19.83" transform="translate(-70.17 -236.87)"/><path class="cls-1" d="M255.13,678a.61.61,0,0,0,.39.75l.18,0,26.42-.06a.59.59,0,0,0,.6-.59.57.57,0,0,0,0-.18L269.41,633.2a.59.59,0,0,0-.74-.4.6.6,0,0,0-.39.4L255.13,678" transform="translate(-70.17 -236.87)"/><path class="cls-3" d="M507.27,277.74a.4.4,0,0,1-.33-.4V238.86c0-.72.35-1,1.06-.93,39.79,5.18,74.35,26.38,100.35,57a.89.89,0,0,1-.07,1.38L584,319.83a.77.77,0,0,1-1.21,0C559.91,298.31,539,283.17,507.27,277.74Z" transform="translate(-70.17 -236.87)"/><path class="cls-3" d="M492,341.2c-10.15-8.41-7.86-25.51,4.52-29.38,17-5.31,58.07,19.92,72.9,29.46,39.84,25.63,61.51,67.5,53.75,116.13-9.37,58.76-60.35,94.49-115.47,98.7-.54,0-.8-.2-.8-.74v-37a1.54,1.54,0,0,1,1.45-1.56c30.91-1.31,63.61-17.64,76-48A77.74,77.74,0,0,0,582.66,407c-15.35-32.71-53-46.92-83.15-60.52C496.91,345.34,494.22,343,492,341.2Z" transform="translate(-70.17 -236.87)"/><path class="cls-3" d="M469.36,406.77c-20.49-11.42-39.37-29.39-36-55.49q2.81-21.51,24.67-26.47c.53-.11.8.1.8.66Q459,353.29,480.66,367q19.2,12.14,38.47,24.15c14.83,9.25,34,22.67,31.19,43.13a42,42,0,0,1-10.26,22.4c-.45.51-.81.45-1.09-.18Q531.85,440.3,518.09,433,488,417.16,469.36,406.77Z" transform="translate(-70.17 -236.87)"/><path class="cls-4" d="M388.76,510.93a.89.89,0,0,1-.05-1.5l25.55-24.67a1.77,1.77,0,0,1,2.37-.1c19.79,16.12,45.2,29.7,70.68,32.55a1.13,1.13,0,0,1,1,1.13v37.41a.67.67,0,0,1-.82.76C450.67,553.37,417.47,535.31,388.76,510.93Z" transform="translate(-70.17 -236.87)"/><path class="cls-3" d="M177.61,623.17c-21-11.58-44.17,14.5-10.77,24,16.33,4.61,33.39,8.82,39.75,27.17,7.76,22.39.14,48.2-24,54-31.54,7.51-53.75-8.56-56-41.7a.69.69,0,0,1,.71-.83l18.5-1.57a1.14,1.14,0,0,1,1.22,1c1.52,16.36,12.95,27.57,29.64,22.33,15.93-5,17.16-24.41.26-30.21q-12.72-4.38-25.38-8.83c-21.31-7.49-26.82-36.77-15.61-54.63,8.4-13.41,27.39-16.57,41.85-13.69,18.45,3.68,29,18,28.83,37.26a.64.64,0,0,1-.64.7l-19.06,1.54a1,1,0,0,1-1.09-.88C184.92,632.63,183.34,626.34,177.61,623.17Z" transform="translate(-70.17 -236.87)"/><path class="cls-3" d="M289.17,700H249a.74.74,0,0,0-.71.55l-8,27.19a.75.75,0,0,1-.71.55H219.07a.75.75,0,0,1-.75-.76.85.85,0,0,1,0-.23L258,601.46a.76.76,0,0,1,.71-.53h20.7a.74.74,0,0,1,.71.53l40.63,125.79a.76.76,0,0,1-.49,1,.52.52,0,0,1-.21,0H299a.75.75,0,0,1-.71-.53l-8.4-27.23A.74.74,0,0,0,289.17,700Zm-34-22a.61.61,0,0,0,.39.75l.18,0,26.42-.06a.59.59,0,0,0,.6-.59.57.57,0,0,0,0-.18L269.41,633.2a.59.59,0,0,0-.74-.4.6.6,0,0,0-.39.4Z" transform="translate(-70.17 -236.87)"/><path class="cls-3" d="M383.84,600.93h20.93a.53.53,0,0,1,.52.53.59.59,0,0,1,0,.14L368.94,727.85a.52.52,0,0,1-.48.39H346.79a.53.53,0,0,1-.49-.39L310.1,601.6a.52.52,0,0,1,.36-.65l.14,0H332a.52.52,0,0,1,.5.39l25.36,91.84a.52.52,0,0,0,.66.34.56.56,0,0,0,.33-.34l24.51-91.84A.52.52,0,0,1,383.84,600.93Z" transform="translate(-70.17 -236.87)"/><path class="cls-3" d="M439,707h55.86a.88.88,0,0,1,.87.89v19.45a.88.88,0,0,1-.87.88H418.16a.88.88,0,0,1-.87-.88V601.82a.88.88,0,0,1,.87-.89h74.49a.87.87,0,0,1,.86.89v19.45a.87.87,0,0,1-.86.88H439a.88.88,0,0,0-.87.88v28.29a.88.88,0,0,0,.87.89h49.8a.87.87,0,0,1,.87.88v17.68a.88.88,0,0,1-.87.89H439a.87.87,0,0,0-.87.88v33.6A.87.87,0,0,0,439,707Z" transform="translate(-70.17 -236.87)"/><path class="cls-4" d="M590.44,635.71l-18.38,91.4a1.26,1.26,0,0,1-1.36,1.13H553.14a1.28,1.28,0,0,1-1.39-1.15L533.41,635.3q-1.78-8.94-1.79.2v91.86a.87.87,0,0,1-.86.88H513.64a1,1,0,0,1-1.09-1.11l0-125.1a1,1,0,0,1,1.09-1.1h28.48a1.29,1.29,0,0,1,1.38,1.15l17.85,84.54a.6.6,0,0,0,.7.5.59.59,0,0,0,.49-.5l17.62-84.72a1.22,1.22,0,0,1,1.18-1h29.52a.78.78,0,0,1,.86.89V727.13a1,1,0,0,1-1.09,1.11h-17.1a1.16,1.16,0,0,1-1.3-1.33v-91Q592.25,626.71,590.44,635.71Z" transform="translate(-70.17 -236.87)"/><path class="cls-4" d="M653.77,707H709.6a.89.89,0,0,1,.88.9h0v19.42a.89.89,0,0,1-.88.9H633a.89.89,0,0,1-.88-.9h0V601.83a.89.89,0,0,1,.88-.9h74.51a.9.9,0,0,1,.88.9h0l0,19.42a.89.89,0,0,1-.89.9H653.77a.89.89,0,0,0-.89.9h0v28.26a.9.9,0,0,0,.89.9h49.77a.89.89,0,0,1,.88.9h0v17.65a.89.89,0,0,1-.88.9H653.77a.89.89,0,0,0-.89.9h0v33.56a.89.89,0,0,0,.89.9Z" transform="translate(-70.17 -236.87)"/><path class="cls-4" d="M728.52,600.93h19.36a.72.72,0,0,1,.71.73V706.3a.71.71,0,0,0,.71.72h50.22a.72.72,0,0,1,.71.73l-.15,19.76a.72.72,0,0,1-.71.73H728.52a.71.71,0,0,1-.71-.73V601.66A.72.72,0,0,1,728.52,600.93Z" transform="translate(-70.17 -236.87)"/><path class="cls-4" d="M816.61,601H834.3a1.38,1.38,0,0,1,1.34,1.42V726.8a1.38,1.38,0,0,1-1.34,1.42H816.61a1.38,1.38,0,0,1-1.34-1.42V602.37A1.38,1.38,0,0,1,816.61,601Z" transform="translate(-70.17 -236.87)"/><path class="cls-4" d="M875.05,647.31v79.51a1.38,1.38,0,0,1-1.34,1.42H857.32a1.38,1.38,0,0,1-1.34-1.42l0-124.47a1.38,1.38,0,0,1,1.34-1.42h18.41a.53.53,0,0,1,.45.3l40.74,82.56a.51.51,0,0,0,.69.24.52.52,0,0,0,.3-.47V602.35a1.38,1.38,0,0,1,1.34-1.42h16.8a1.38,1.38,0,0,1,1.34,1.42V726.82a1.38,1.38,0,0,1-1.34,1.42H916.75a.51.51,0,0,1-.45-.28L876,647.08a.53.53,0,0,0-.69-.25A.55.55,0,0,0,875.05,647.31Z" transform="translate(-70.17 -236.87)"/><path class="cls-3" d="M1002.05,769,72.56,767.6a1.29,1.29,0,0,1-1.19-.83,1.66,1.66,0,0,1,.74-2.35,4.38,4.38,0,0,1,2-.37q138.65,0,277.3-.09a1.48,1.48,0,0,1,.92.28,2,2,0,0,0,1.25.44q234.08-1.18,308.68-.56c113.36,1,201.38.8,339.89,2a.94.94,0,0,1,1,1.06c0,.16,0,.33,0,.51a1.23,1.23,0,0,1-1.16,1.29Z" transform="translate(-70.17 -236.87)"/></svg>